# xmcd
#
# Track frame offsets:
#	150
#	12269
#	26743
#	37696
#	49664
#	58385
#	69830
#	82663
#	96893
#	108028
#
# Disc length: 1639 seconds
# Revision: 0
# Processed by: cddbd v1.5.2PL0 Copyright (c) Steve Scherf et al.
# Submitted via: dBpowerAMP V12.0
#
DISCID=6c06650a
DTITLE=The Tennessee Mafia Jug Band - Tales from Short Mountain
DYEAR=2014
DGENRE=Country
TTITLE0=Open Up Your Mouth (and Let the Moonshine in)
TTITLE1=Ballad of Thunder Road
TTITLE2=Whiskey Before Breakfast
TTITLE3=King of the Cannon County Hills
TTITLE4=Chug a Lug
TTITLE5=Katy Daley
TTITLE6=Slide Dem Jugs Down the Mountain
TTITLE7=Jimmy (Regards to Dooley)
TTITLE8=What a Waste of Good Corn Liquor
TTITLE9=Mountain Dew
EXTD=
EXTT0=
EXTT1=
EXTT2=
EXTT3=
EXTT4=
EXTT5=
EXTT6=
EXTT7=
EXTT8=
EXTT9=
PLAYORDER=
